<svg width="36" height="36" viewBox="0 0 36 36" fill="none" xmlns="http://www.w3.org/2000/svg">
<g id="vuesax/bold/medal-star">
<g id="medal-star">
<path id="Vector" d="M31.875 27.7049L29.4 28.2899C28.845 28.4249 28.41 28.8449 28.29 29.3999L27.765 31.6049C27.48 32.8049 25.95 33.1799 25.155 32.2349L20.67 27.0749C20.31 26.6549 20.505 25.9949 21.045 25.8599C23.7 25.2149 26.085 23.7299 27.84 21.6149C28.125 21.2699 28.635 21.2249 28.95 21.5399L32.28 24.8699C33.42 26.0099 33.015 27.4349 31.875 27.7049Z" fill="white"/>
<path id="Vector_2" d="M4.05 27.7049L6.525 28.2899C7.08 28.4249 7.515 28.8449 7.635 29.3999L8.16 31.6049C8.445 32.8049 9.975 33.1799 10.77 32.2349L15.255 27.0749C15.615 26.6549 15.42 25.9949 14.88 25.8599C12.225 25.2149 9.84 23.7299 8.085 21.6149C7.8 21.2699 7.29 21.2249 6.975 21.5399L3.645 24.8699C2.505 26.0099 2.91 27.4349 4.05 27.7049Z" fill="white"/>
<path id="Vector_3" d="M18 3C12.195 3 7.5 7.695 7.5 13.5C7.5 15.675 8.145 17.67 9.255 19.335C10.875 21.735 13.44 23.43 16.425 23.865C16.935 23.955 17.46 24 18 24C18.54 24 19.065 23.955 19.575 23.865C22.56 23.43 25.125 21.735 26.745 19.335C27.855 17.67 28.5 15.675 28.5 13.5C28.5 7.695 23.805 3 18 3ZM22.59 13.17L21.345 14.415C21.135 14.625 21.015 15.03 21.09 15.33L21.45 16.875C21.735 18.09 21.09 18.57 20.01 17.925L18.51 17.04C18.24 16.875 17.79 16.875 17.52 17.04L16.02 17.925C14.94 18.555 14.295 18.09 14.58 16.875L14.94 15.33C15 15.045 14.895 14.625 14.685 14.415L13.41 13.17C12.675 12.435 12.915 11.7 13.935 11.535L15.54 11.265C15.81 11.22 16.125 10.98 16.245 10.74L17.13 8.97C17.61 8.01 18.39 8.01 18.87 8.97L19.755 10.74C19.875 10.98 20.19 11.22 20.475 11.265L22.08 11.535C23.085 11.7 23.325 12.435 22.59 13.17Z" fill="white"/>
</g>
</g>
</svg>
