<svg width="36" height="36" viewBox="0 0 36 36" fill="none" xmlns="http://www.w3.org/2000/svg">
<g id="vuesax/bold/call-calling">
<g id="call-calling">
<path id="Vector" d="M26.43 16.125C25.785 16.125 25.275 15.6 25.275 14.97C25.275 14.415 24.72 13.26 23.79 12.255C22.875 11.28 21.87 10.71 21.03 10.71C20.385 10.71 19.875 10.185 19.875 9.55502C19.875 8.92502 20.4 8.40002 21.03 8.40002C22.53 8.40002 24.105 9.21002 25.485 10.665C26.775 12.03 27.6 13.725 27.6 14.955C27.6 15.6 27.075 16.125 26.43 16.125Z" fill="white"/>
<path id="Vector_2" d="M31.845 16.125C31.2 16.125 30.69 15.6 30.69 14.97C30.69 9.645 26.355 5.325 21.045 5.325C20.4 5.325 19.89 4.8 19.89 4.17C19.89 3.54 20.4 3 21.03 3C27.63 3 33 8.37 33 14.97C33 15.6 32.475 16.125 31.845 16.125Z" fill="white"/>
<path id="Vector_3" d="M16.575 22.425L13.8 25.2C13.215 25.785 12.285 25.785 11.685 25.215C11.52 25.05 11.355 24.9 11.19 24.735C9.645 23.175 8.25 21.54 7.005 19.83C5.775 18.12 4.785 16.41 4.065 14.715C3.36 13.005 3 11.37 3 9.81C3 8.79 3.18 7.815 3.54 6.915C3.9 6 4.47 5.16 5.265 4.41C6.225 3.465 7.275 3 8.385 3C8.805 3 9.225 3.09 9.6 3.27C9.99 3.45 10.335 3.72 10.605 4.11L14.085 9.015C14.355 9.39 14.55 9.735 14.685 10.065C14.82 10.38 14.895 10.695 14.895 10.98C14.895 11.34 14.79 11.7 14.58 12.045C14.385 12.39 14.1 12.75 13.74 13.11L12.6 14.295C12.435 14.46 12.36 14.655 12.36 14.895C12.36 15.015 12.375 15.12 12.405 15.24C12.45 15.36 12.495 15.45 12.525 15.54C12.795 16.035 13.26 16.68 13.92 17.46C14.595 18.24 15.315 19.035 16.095 19.83C16.245 19.98 16.41 20.13 16.56 20.28C17.16 20.865 17.175 21.825 16.575 22.425Z" fill="white"/>
<path id="Vector_4" d="M32.955 27.4951C32.955 27.9151 32.88 28.3501 32.73 28.7701C32.685 28.8901 32.64 29.0101 32.58 29.1301C32.325 29.6701 31.995 30.1801 31.56 30.6601C30.825 31.4701 30.015 32.0551 29.1 32.4301C29.085 32.4301 29.07 32.4451 29.055 32.4451C28.17 32.8051 27.21 33.0001 26.175 33.0001C24.645 33.0001 23.01 32.6401 21.285 31.9051C19.56 31.1701 17.835 30.1801 16.125 28.9351C15.54 28.5001 14.955 28.0651 14.4 27.6001L19.305 22.6951C19.725 23.0101 20.1 23.2501 20.415 23.4151C20.49 23.4451 20.58 23.4901 20.685 23.5351C20.805 23.5801 20.925 23.5951 21.06 23.5951C21.315 23.5951 21.51 23.5051 21.675 23.3401L22.815 22.2151C23.19 21.8401 23.55 21.5551 23.895 21.3751C24.24 21.1651 24.585 21.0601 24.96 21.0601C25.245 21.0601 25.545 21.1201 25.875 21.2551C26.205 21.3901 26.55 21.5851 26.925 21.8401L31.89 25.3651C32.28 25.6351 32.55 25.9501 32.715 26.3251C32.865 26.7001 32.955 27.0751 32.955 27.4951Z" fill="white"/>
</g>
</g>
</svg>
