<svg width="36" height="36" viewBox="0 0 36 36" fill="none" xmlns="http://www.w3.org/2000/svg">
<g id="vuesax/bold/ranking">
<g id="ranking">
<path id="Vector" d="M10.005 21H6C4.35 21 3 22.35 3 24V31.5C3 32.325 3.675 33 4.5 33H10.005C10.83 33 11.505 32.325 11.505 31.5V22.5C11.505 21.675 10.83 21 10.005 21Z" fill="white"/>
<path id="Vector_2" d="M19.995 15H15.99C14.34 15 12.99 16.35 12.99 18V31.5C12.99 32.325 13.665 33 14.49 33H21.495C22.32 33 22.995 32.325 22.995 31.5V18C22.995 16.35 21.66 15 19.995 15Z" fill="white"/>
<path id="Vector_3" d="M30 25.5H25.995C25.17 25.5 24.495 26.175 24.495 27V31.5C24.495 32.325 25.17 33 25.995 33H31.5C32.325 33 33 32.325 33 31.5V28.5C33 26.85 31.65 25.5 30 25.5Z" fill="white"/>
<path id="Vector_4" d="M22.515 7.275C22.98 6.81 23.16 6.255 23.01 5.775C22.86 5.295 22.395 4.95 21.735 4.845L20.295 4.605C20.235 4.605 20.1 4.5 20.07 4.44L19.275 2.85C18.675 1.635 17.31 1.635 16.71 2.85L15.915 4.44C15.9 4.5 15.765 4.605 15.705 4.605L14.265 4.845C13.605 4.95 13.155 5.295 12.99 5.775C12.84 6.255 13.02 6.81 13.485 7.275L14.595 8.4C14.655 8.445 14.7 8.625 14.685 8.685L14.37 10.065C14.13 11.1 14.52 11.565 14.775 11.745C15.03 11.925 15.585 12.165 16.5 11.625L17.85 10.83C17.91 10.785 18.105 10.785 18.165 10.83L19.5 11.625C19.92 11.88 20.265 11.955 20.535 11.955C20.85 11.955 21.075 11.835 21.21 11.745C21.465 11.565 21.855 11.1 21.615 10.065L21.3 8.685C21.285 8.61 21.33 8.445 21.39 8.4L22.515 7.275Z" fill="white"/>
</g>
</g>
</svg>
